:version 1.10
:name ASF
:units
  mass 1
  length 1
  angle deg
:documentation
  ASF file generated by Kaydara
:root
  axis xyz
  order  tx ty tz rx ry rz
  position 0 0 0
  orientation 0 0 0
:bonedata
  begin
    id 1
    name RightUpLegDummy
    direction -1 2.30186e-007 8.31532e-007
    length 4.04083
    axis 0 0 0 xyz
  end
  begin
    id 2
    name RightUpLeg
    direction -0.000919234 -0.999985 0.00544864
    length 17.4221
    axis -3.80308 -0.00076134 -0.0523649 xyz
    dof rx ry rz
  end
  begin
    id 3
    name RightLeg
    direction -0.000919271 -0.999984 -0.00555045
    length 17.1239
    axis 4.00314 0.0181274 -0.183583 xyz
    dof rx ry rz
  end
  begin
    id 4
    name RightFoot
    direction -2.57843e-005 -4.04509e-007 1
    length 6.72091
    axis 8.18909e-005 -0.122003 -0.403008 xyz
    dof rx ry rz
  end
  begin
    id 5
    name RightToes
    direction 0.00116825 -0.014069 0.9999
    length 3.85082
    axis 0.000514414 0.540638 -0.356797 xyz
    dof rx ry rz
  end
  begin
    id 6
    name SpineDummy
    direction 0.0168869 0.966876 -0.254689
    length 6.99894
    axis 0 0 0 xyz
  end
  begin
    id 7
    name Spine
    direction -0.0132008 0.999903 0.00446247
    length 11.1999
    axis -0.00148109 0.00725429 0.756411 xyz
    dof rx ry rz
  end
  begin
    id 8
    name Spine1
    direction 0 0 0
    length 0
    axis -0.000934958 0.0245693 1.46543 xyz
    dof rx ry rz
  end
  begin
    id 9
    name HEadDummy
    direction -0.0255732 0.999672 0.00128215
    length 3.43865
    axis -0.000934958 0.0245693 1.46543 xyz
  end
  begin
    id 10
    name HEad
    direction -0.0472656 0.980052 0.19304
    length 5.12695
    axis -0.000934954 0.0245693 1.46543 xyz
    dof rx ry rz
  end
  begin
    id 11
    name LeftShoulder1Dummy
    direction 0.953098 0.301717 -0.023914
    length 3.68488
    axis -0.000934958 0.0245693 1.46543 xyz
  end
  begin
    id 12
    name LeftShoulder1
    direction 0.962466 0.271167 0.0112566
    length 3.13809
    axis -0.000934958 0.0245693 1.46543 xyz
    dof rx ry rz
  end
  begin
    id 13
    name LeftArm
    direction 0.999943 0.00455037 -0.00961766
    length 11.3419
    axis -23.1648 0.685459 1.22814 xyz
    dof rx ry rz
  end
  begin
    id 14
    name LeftForeArm
    direction 0.999332 0.0131969 0.0340885
    length 8.70632
    axis -9.90633 0.618216 0.0826942 xyz
    dof rx ry rz
  end
  begin
    id 15
    name LeftHand
    direction 0.994373 -0.0366703 0.0993905
    length 5.32135
    axis 0.00675269 0.680415 0.445699 xyz
    dof rx ry rz
  end
  begin
    id 16
    name RightShoulderDummy
    direction -0.967298 0.252589 -0.0230903
    length 3.68488
    axis -0.000934958 0.0245693 1.46543 xyz
  end
  begin
    id 17
    name RightShoulder
    direction -0.975062 0.221602 0.0120823
    length 3.13809
    axis 0.216257 0.0246515 1.45863 xyz
    dof rx ry rz
  end
  begin
    id 18
    name RightArm
    direction -0.99886 -0.00851186 -0.0469687
    length 10.3947
    axis -23.196 0.23503 -0.532632 xyz
    dof rx ry rz
  end
  begin
    id 19
    name RightForeArm
    direction -0.99909 0.00114866 0.0426317
    length 8.68355
    axis -9.91764 -0.134943 0.610517 xyz
    dof rx ry rz
  end
  begin
    id 20
    name RightHand
    direction -0.992888 -0.0489538 0.10852
    length 5.28593
    axis -0.00275396 -0.197403 0.246414 xyz
    dof rx ry rz
  end
  begin
    id 21
    name LeftUpLegDummy
    direction 1 -2.30186e-007 -8.31532e-007
    length 4.04083
    axis 0 0 0 xyz
  end
  begin
    id 22
    name LeftUpLeg
    direction -0.000920097 -1 2.79241e-006
    length 17.4221
    axis -3.48782 0.00143434 -0.0532288 xyz
    dof rx ry rz
  end
  begin
    id 23
    name LeftLeg
    direction -0.000920097 -1 2.7912e-006
    length 17.1239
    axis 3.68162 -0.00806512 -0.0529896 xyz
    dof rx ry rz
  end
  begin
    id 24
    name LeftFoot
    direction -2.57845e-005 -3.987e-007 1
    length 6.72091
    axis 3.02372e-005 -0.00147829 -0.214229 xyz
    dof rx ry rz
  end
  begin
    id 25
    name LeftToes
    direction 0.00813577 -0.00488255 0.999955
    length 3.85048
    axis 3.89895e-005 -0.0014783 -0.214229 xyz
    dof rx ry rz
  end
:hierarchy
  begin
    root RightUpLegDummy SpineDummy LeftUpLegDummy
    RightUpLegDummy RightUpLeg
    RightUpLeg RightLeg
    RightLeg RightFoot
    RightFoot RightToes
    SpineDummy Spine
    Spine Spine1
    Spine1 HEadDummy LeftShoulder1Dummy RightShoulderDummy
    HEadDummy HEad
    LeftShoulder1Dummy LeftShoulder1
    LeftShoulder1 LeftArm
    LeftArm LeftForeArm
    LeftForeArm LeftHand
    RightShoulderDummy RightShoulder
    RightShoulder RightArm
    RightArm RightForeArm
    RightForeArm RightHand
    LeftUpLegDummy LeftUpLeg
    LeftUpLeg LeftLeg
    LeftLeg LeftFoot
    LeftFoot LeftToes
  end

:SAMPLES-PER-SECOND 30
:FULLY-SPECIFIED
:DEGREES
31
root  -17.4329 34.8199 -14.5502 -172.57 1.396 179.441
RightUpLeg  -4.21029 -15.2506 -2.50333
RightLeg  0.918755 -1.81227 0.0878797
RightFoot  7.14582 0.0322692 -0.0570388
RightToes  -26.0456 -0.120729 -0.223827
Spine  -3.07071 0.599708 -1.22177
Spine1  -5.74027 1.44533 -1.57314
HEad  -57.5777 -7.39783 6.52785
LeftShoulder1  -1.94126e-019 -3.10601e-018 -2.51263e-017
LeftArm  16.9725 -14.5863 -81.6441
LeftForeArm  156.772 -60.9204 -160.759
LeftHand  -0.604212 0.427836 14.174
RightShoulder  -4.96962e-017 0 -2.36833e-017
RightArm  6.95478 7.65944 80.7329
RightForeArm  -172.463 61.321 163.457
RightHand  -0.17006 -4.56691 -22.9009
LeftUpLeg  -5.38977 0.854688 2.91252
LeftLeg  5.0784 14.4455 0.347761
LeftFoot  5.80131 -0.0776132 1.69323
LeftToes  -21.5664 1.7763e-006 6.54387e-008
32
root  -17.4068 34.8307 -14.5632 -172.453 1.71265 179.552
RightUpLeg  -4.42783 -15.0968 -2.33256
RightLeg  1.05508 -1.64362 0.0758389
RightFoot  7.16402 0.0307155 -0.0348352
RightToes  -25.8245 -0.120729 -0.223297
Spine  -2.96757 0.5755 -1.18209
Spine1  -5.59849 1.36583 -1.5271
HEad  -58.9153 -6.37782 7.05556
LeftShoulder1  -1.94126e-019 -3.10601e-018 -2.51263e-017
LeftArm  22.5691 -18.4889 -82.7572
LeftForeArm  158.77 -58.6696 -162.504
LeftHand  -0.586784 2.1704 21.0129
RightShoulder  -4.96962e-017 0 -2.36833e-017
RightArm  12.9629 11.8235 81.0158
RightForeArm  -172.954 59.2171 164.743
RightHand  0.495607 -7.075 -33.048
LeftUpLeg  -5.74238 0.507089 3.02939
LeftLeg  5.74554 15.1007 0.537066
LeftFoot  5.59017 -0.0753805 1.70545
LeftToes  -21.3791 1.7763e-006 6.54387e-008
33
root  -17.3986 34.8281 -14.5428 -172.257 1.91272 179.626
RightUpLeg  -4.82347 -14.5627 -2.18394
RightLeg  1.31316 -2.00078 0.083301
RightFoot  7.10554 0.033883 -0.0801007
RightToes  -25.712 -0.120729 -0.222741
Spine  -2.87473 0.424522 -1.0901
Spine1  -5.36981 1.04287 -1.39598
HEad  -61.5133 -4.97988 7.82755
LeftShoulder1  -1.94126e-019 -3.10601e-018 -2.51263e-017
LeftArm  15.1407 -19.1738 -82.986
LeftForeArm  163.074 -55.2758 -164.844
LeftHand  -0.769829 -1.22486 13.6473
RightShoulder  -4.96962e-017 0 -2.36833e-017
RightArm  4.95408 14.2827 80.6751
RightForeArm  -164.097 56.1248 167.087
RightHand  -0.702899 -1.89639 -23.1091
LeftUpLeg  -6.15067 0.190477 3.08864
LeftLeg  6.21568 15.6257 0.682066
LeftFoot  5.36852 -0.0718778 1.69513
LeftToes  -21.1402 1.7763e-006 6.54387e-008
34
root  -17.4015 34.812 -14.5428 -172.386 2.09647 179.651
RightUpLeg  -4.97288 -14.0157 -2.19821
RightLeg  1.8387 -2.36773 0.0769052
RightFoot  6.80753 0.0360749 -0.111424
RightToes  -25.5722 -0.120729 -0.22217
Spine  -2.9492 0.280979 -1.08102
Spine1  -5.51113 0.74756 -1.37426
HEad  -63.0849 -3.67924 8.42333
LeftShoulder1  -1.94126e-019 -3.10601e-018 -2.51263e-017
LeftArm  10.8397 -19.7849 -83.4913
LeftForeArm  160.299 -53.9975 -165.288
LeftHand  -0.738387 0.247113 16.7024
RightShoulder  -4.96962e-017 0 -2.36833e-017
RightArm  0.0299961 16.1649 80.6308
RightForeArm  -171.967 55.7412 166.688
RightHand  -0.0929983 -5.01222 -27.319
LeftUpLeg  -6.12996 0.283419 3.09311
LeftLeg  6.51915 15.7277 0.768799
LeftFoot  5.11836 -0.0658097 1.63388
LeftToes  -20.9125 1.7763e-006 6.54387e-008
35
root  -17.4014 34.8052 -14.5756 -172.569 2.24559 179.634
RightUpLeg  -4.88039 -13.6265 -2.28055
RightLeg  2.09634 -2.61163 0.073092
RightFoot  6.63459 0.0370891 -0.12592
RightToes  -25.4981 -0.120729 -0.221595
Spine  -2.99703 0.172632 -1.19639
Spine1  -5.66722 0.526723 -1.59539
HEad  -62.9584 -3.09048 9.20919
LeftShoulder1  -1.94126e-019 -3.10601e-018 -2.51263e-017
LeftArm  14.8152 -21.3899 -85.4704
LeftForeArm  160.865 -54.9525 -164.846
LeftHand  -0.647621 1.66234 20.0741
RightShoulder  -4.96962e-017 0 -2.36833e-017
RightArm  4.12756 18.3844 82.5094
RightForeArm  -177.999 56.2691 165.96
RightHand  0.788919 -8.00106 -33.8891
LeftUpLeg  -5.87862 0.635302 3.07063
LeftLeg  6.53772 15.4966 0.762737
LeftFoot  5.03122 -0.0616744 1.58901
LeftToes  -21.0471 1.7763e-006 6.54387e-008
36
root  -17.4002 34.8115 -14.6223 -172.618 2.38205 179.588
RightUpLeg  -4.78634 -13.4766 -2.35083
RightLeg  2.11189 -2.64159 0.0732114
RightFoot  6.59016 0.0369334 -0.123693
RightToes  -25.3729 -0.120729 -0.221028
Spine  -3.01507 0.0255256 -1.22445
Spine1  -5.74064 0.226952 -1.63073
HEad  -62.0929 -2.79432 9.55717
LeftShoulder1  -1.94126e-019 -3.10601e-018 -2.51263e-017
LeftArm  21.4629 -23.9656 -86.4937
LeftForeArm  161.197 -56.2459 -164.173
LeftHand  -0.868466 0.558243 20.8252
RightShoulder  -4.96962e-017 0 -2.36833e-017
RightArm  11.4571 20.8021 83.6837
RightForeArm  -175.792 56.6832 165.923
RightHand  0.39649 -6.87824 -30.2987
LeftUpLeg  -5.65674 1.0291 3.02901
LeftLeg  6.37192 15.2187 0.705778
LeftFoot  5.10568 -0.060305 1.58472
LeftToes  -21.2805 1.7763e-006 6.54387e-008
37
root  -17.3994 34.8073 -14.6425 -172.603 2.51108 179.575
RightUpLeg  -4.85822 -13.263 -2.37012
RightLeg  2.258 -2.72508 0.0685903
RightFoot  6.48095 0.0375003 -0.131795
RightToes  -25.3255 -0.120729 -0.22048
Spine  -3.03377 -0.033924 -1.16818
Spine1  -5.74245 0.0979069 -1.52127
HEad  -62.4908 -2.59724 9.55444
LeftShoulder1  -1.94126e-019 -3.10601e-018 -2.51263e-017
LeftArm  18.8573 -24.428 -83.553
LeftForeArm  167.058 -53.9891 -165.82
LeftHand  -1.02689 -1.63253 17.0887
RightShoulder  -4.96962e-017 0 -2.36833e-017
RightArm  9.51053 21.4264 81.6221
RightForeArm  -172.426 55.1323 166.953
RightHand  -0.265844 -4.22315 -25.7856
LeftUpLeg  -5.5867 0.95954 3.00294
LeftLeg  6.31873 15.4183 0.700658
LeftFoot  5.07102 -0.0597767 1.5912
LeftToes  -21.1653 1.7763e-006 6.54387e-008
38
root  -17.4001 34.7994 -14.6693 -172.716 2.76476 179.618
RightUpLeg  -4.83314 -13.1183 -2.3754
RightLeg  2.44975 -2.59801 0.0567576
RightFoot  6.40898 0.0365875 -0.11875
RightToes  -25.4955 -0.120729 -0.219961
Spine  -3.15896 0.0602286 -1.10404
Spine1  -5.94181 0.287276 -1.40372
HEad  -62.8078 -2.81079 9.72158
LeftShoulder1  -1.94126e-019 -3.10601e-018 -2.51263e-017
LeftArm  14.5073 -24.5631 -80.5785
LeftForeArm  167.362 -53.1495 -166.244
LeftHand  -1.13238 -1.86553 18.2186
RightShoulder  -4.96962e-017 0 -2.36833e-017
RightArm  5.89727 20.7039 77.8293
RightForeArm  -168.495 54.5906 167.492
RightHand  -0.68905 -2.43117 -26.6535
LeftUpLeg  -5.33209 1.04132 3.01742
LeftLeg  6.21242 15.611 0.680563
LeftFoot  5.02832 -0.0592686 1.59579
LeftToes  -21.2501 1.7763e-006 6.54387e-008
39
root  -17.4098 34.7984 -14.6979 -172.904 2.90701 179.647
RightUpLeg  -4.67535 -12.9874 -2.42218
RightLeg  2.56453 -2.582 0.0512614
RightFoot  6.36326 0.0364726 -0.117108
RightToes  -25.4048 -0.120729 -0.219483
Spine  -3.176 0.0743777 -1.05938
Spine1  -5.95549 0.315091 -1.3208
HEad  -62.5616 -3.01598 10.0848
LeftShoulder1  -1.94126e-019 -3.10601e-018 -2.51263e-017
LeftArm  10.8561 -24.3544 -79.0929
LeftForeArm  164.658 -53.0409 -166.09
LeftHand  -0.853756 0.976494 22.3643
RightShoulder  -4.96962e-017 0 -2.36833e-017
RightArm  2.53214 19.517 77.2267
RightForeArm  -170.284 55.048 167.146
RightHand  -0.227804 -4.55923 -31.3186
LeftUpLeg  -5.07672 0.948046 3.0157
LeftLeg  6.23885 15.8454 0.697757
LeftFoot  4.90861 -0.0577264 1.58221
LeftToes  -20.9634 1.7763e-006 6.54387e-008
40
root  -17.4141 34.8011 -14.7128 -173.024 2.97879 179.619
RightUpLeg  -4.56222 -12.6742 -2.48335
RightLeg  2.60918 -2.83027 0.0539421
RightFoot  6.3434 0.0380407 -0.139519
RightToes  -25.353 -0.120729 -0.219057
Spine  -3.20514 0.0583187 -1.08152
Spine1  -6.027 0.300952 -1.36845
HEad  -61.773 -3.1433 10.2388
LeftShoulder1  -1.94126e-019 -3.10601e-018 -2.51263e-017
LeftArm  12.9336 -24.6374 -79.907
LeftForeArm  162.732 -54.7827 -165.077
LeftHand  -0.721621 1.50762 21.4753
RightShoulder  -4.96962e-017 0 -2.36833e-017
RightArm  5.56051 19.4141 80.1985
RightForeArm  -176.949 56.1498 166.096
RightHand  0.682204 -7.62071 -34.242
LeftUpLeg  -4.98584 0.92561 2.97709
LeftLeg  6.37427 15.9208 0.738197
LeftFoot  4.82481 -0.0562221 1.56724
LeftToes  -20.7086 1.7763e-006 6.54387e-008
41
root  -17.4186 34.8057 -14.7374 -173.138 3.11839 179.631
RightUpLeg  -4.43661 -12.4785 -2.51484
RightLeg  2.62489 -2.8795 0.0540852
RightFoot  6.3318 0.0379148 -0.13772
RightToes  -25.3304 -0.12073 -0.218694
Spine  -3.20252 0.134069 -1.06354
Spine1  -6.05774 0.474549 -1.31971
HEad  -61.18 -3.66974 10.5182
LeftShoulder1  -1.94126e-019 -3.10601e-018 -2.51263e-017
LeftArm  22.5322 -26.1189 -81.2348
LeftForeArm  161.594 -58.1867 -163.055
LeftHand  -0.634717 1.86725 20.7987
RightShoulder  -4.96962e-017 0 -2.36833e-017
RightArm  14.6554 20.1973 81.7008
RightForeArm  -174.075 57.8302 165.439
RightHand  0.0797825 -5.65746 -32.7201
LeftUpLeg  -4.84585 1.20614 2.98174
LeftLeg  6.44213 15.7737 0.750021
LeftFoot  4.79021 -0.0546795 1.54981
LeftToes  -20.8464 1.7763e-006 6.54387e-008
